<?xml version="1.0" encoding="utf-8"?>
<!-- Generator: Adobe Illustrator 16.0.0, SVG Export Plug-In . SVG Version: 6.00 Build 0)  -->
<!DOCTYPE svg PUBLIC "-//W3C//DTD SVG 1.1//EN" "http://www.w3.org/Graphics/SVG/1.1/DTD/svg11.dtd">
<svg version="1.1" xmlns="http://www.w3.org/2000/svg" xmlns:xlink="http://www.w3.org/1999/xlink" x="0px" y="0px" width="100px"
	 height="100px" viewBox="0 0 100 100" enable-background="new 0 0 100 100" xml:space="preserve">
<g id="Circle" display="none">
	<g display="inline">
		<path fill="#FFFFFF" d="M50.638,1.573c-27.037,0-48.953,21.918-48.953,48.954c0,27.034,21.917,48.952,48.953,48.952
			c27.036,0,48.953-21.918,48.953-48.952C99.591,23.491,77.674,1.573,50.638,1.573z M50.638,94.583
			c-24.293,0-44.057-19.766-44.057-44.056c0-24.292,19.764-44.058,44.057-44.058c24.294,0,44.058,19.766,44.058,44.058
			C94.696,74.817,74.932,94.583,50.638,94.583z"/>
		<path fill="#FFFFFF" d="M57.243,28.354l-6.846,6.846c-1.038,1.041-1.941,4.514-1.527,8.031l-20.72,20.719
			c-1.228,1.233-0.232,4.221,2.225,6.677c2.458,2.456,5.446,3.451,6.676,2.225l20.715-20.72c3.521,0.416,6.995-0.491,8.035-1.53
			l6.847-6.844c1.701-1.699,0.146-7.041-4.109-11.294C64.285,28.208,58.945,26.652,57.243,28.354z M49.863,52.485
			c-1.324,1.321-3.165,1.628-4.109,0.684c-0.945-0.946-0.638-2.785,0.685-4.109c1.323-1.321,3.161-1.628,4.107-0.685
			C51.491,49.319,51.185,51.161,49.863,52.485z M70.829,41.938c-0.284,0.286-4.643-0.532-7.937-3.83
			c-3.295-3.293-4.124-7.64-3.833-7.934c0.297-0.295,4.473,0.703,7.767,4C70.122,37.468,71.112,41.655,70.829,41.938z"/>
	</g>
</g>
<g id="Circle_copy" display="none">
	<path display="inline" fill="#FFFFFF" d="M50.638,6.47c24.294,0,44.058,19.766,44.058,44.058c0,24.29-19.764,44.056-44.058,44.056
		c-24.293,0-44.057-19.766-44.057-44.056C6.581,26.235,26.344,6.47,50.638,6.47 M50.638,1.573
		c-27.037,0-48.953,21.918-48.953,48.954c0,27.034,21.917,48.952,48.953,48.952c27.036,0,48.953-21.918,48.953-48.952
		C99.591,23.491,77.674,1.573,50.638,1.573L50.638,1.573z"/>
</g>
<g id="Layer_24" display="none">
	<path display="inline" fill="#FFFFFF" d="M62.892,37.129c-3.295-3.294-4.124-7.64-3.833-7.936c0.297-0.292,4.473,0.705,7.767,4.002
		c3.296,3.293,4.286,7.48,4.002,7.764C70.545,41.245,66.186,40.427,62.892,37.129 M45.754,52.188
		c-0.945-0.944-0.638-2.784,0.685-4.107s3.161-1.63,4.107-0.685c0.944,0.943,0.638,2.785-0.684,4.108
		C48.539,52.828,46.698,53.133,45.754,52.188 M68.54,31.482c-4.255-4.254-9.595-5.81-11.296-4.108l-6.846,6.848
		c-1.038,1.039-1.941,4.513-1.527,8.03l-20.72,20.72c-1.228,1.23-0.232,4.22,2.225,6.673c2.458,2.459,5.446,3.453,6.676,2.225
		L57.767,51.15c3.521,0.415,6.995-0.49,8.035-1.528l6.847-6.845C74.35,41.078,72.795,35.736,68.54,31.482"/>
</g>
<g id="Statistics_no_circle" display="none">
	<path display="inline" fill="#FFFFFF" d="M46.896,41.712l13.393,8.568c1.127,0.724,2.632,0.424,3.395-0.675l13.775-19.842
		c0.783-1.125,0.495-2.67-0.632-3.449c-1.134-0.779-2.684-0.495-3.466,0.628L60.955,44.812l-13.471-8.622
		c-0.559-0.358-1.238-0.476-1.885-0.338c-0.648,0.144-1.209,0.534-1.566,1.095l-20.538,32.24c-0.74,1.159-0.392,2.691,0.768,3.423
		c0.414,0.261,0.876,0.387,1.331,0.387c0.826,0,1.632-0.408,2.106-1.152L46.896,41.712z M73.74,53.797L61.514,64.802L47.137,53.677
		c-0.276-0.212-0.59-0.364-0.926-0.445l-1.917-0.478l-2.811,4.414l3.011,0.746l15.61,12.08c0.453,0.348,0.994,0.522,1.527,0.522
		c0.6,0,1.199-0.219,1.673-0.641L77.08,57.477c1.018-0.919,1.095-2.488,0.176-3.506C76.336,52.958,74.758,52.876,73.74,53.797
		 M24.994,53.08l3.736,0.929l2.811-4.416l-5.342-1.322c-1.339-0.335-2.689,0.475-3.02,1.807
		C22.848,51.405,23.661,52.751,24.994,53.08"/>
</g>
<g id="Statistics" display="none">
	<g display="inline">
		<path fill="#FFFFFF" d="M50.638,1.573c-27.037,0-48.953,21.918-48.953,48.954c0,27.034,21.917,48.952,48.953,48.952
			c27.036,0,48.953-21.918,48.953-48.952C99.591,23.491,77.674,1.573,50.638,1.573z M50.638,94.583
			c-24.293,0-44.057-19.766-44.057-44.056c0-24.292,19.764-44.058,44.057-44.058c24.294,0,44.058,19.766,44.058,44.058
			C94.696,74.817,74.932,94.583,50.638,94.583z"/>
		<path fill="#FFFFFF" d="M73.74,54.775L61.514,65.781L47.137,54.656c-0.276-0.212-0.59-0.365-0.926-0.447l-1.917-0.477
			l-2.811,4.414l3.011,0.748l15.61,12.079c0.453,0.348,0.994,0.52,1.527,0.52c0.6,0,1.199-0.216,1.673-0.637L77.08,58.455
			c1.018-0.918,1.095-2.486,0.176-3.506C76.336,53.937,74.758,53.854,73.74,54.775z"/>
		<path fill="#FFFFFF" d="M24.994,54.061l3.736,0.927l2.811-4.416l-5.342-1.322c-1.339-0.334-2.689,0.476-3.02,1.807
			C22.848,52.384,23.661,53.729,24.994,54.061z"/>
		<path fill="#FFFFFF" d="M76.826,27.293c-1.134-0.779-2.684-0.497-3.466,0.63L60.955,45.792l-13.471-8.623
			c-0.559-0.359-1.238-0.478-1.885-0.338c-0.648,0.145-1.209,0.536-1.566,1.094l-20.538,32.24c-0.74,1.159-0.392,2.692,0.768,3.423
			c0.414,0.263,0.876,0.388,1.331,0.388c0.826,0,1.632-0.409,2.106-1.153L46.896,42.69l13.393,8.57
			c1.127,0.723,2.632,0.424,3.395-0.675l13.775-19.842C78.241,29.617,77.953,28.074,76.826,27.293z"/>
	</g>
</g>
<g id="Shop_no_circle" display="none">
	<g display="inline">
		<path fill-rule="evenodd" clip-rule="evenodd" fill="#FFFFFF" d="M25.64,32.066c-0.114-0.478-0.179-0.632-0.185-0.792
			c-0.221-4.642-0.219-4.642,4.351-4.642c5.87-0.002,5.87-0.002,6.512,5.72c12.488,0,25.005,0,37.839,0
			c0,5.062,0.099,9.92-0.109,14.767c-0.03,0.686-1.45,1.637-2.391,1.917c-9.128,2.697-18.29,5.269-27.434,7.904
			c-0.937,0.268-1.82,0.728-2.729,1.098c0.047,0.273,0.093,0.547,0.139,0.827c10.749,0,21.499,0,32.563,0
			c-0.414,2.137,1.247,4.377-1.249,5.242c-1.572,0.541-3.481,0.099-5.586,0.099c3.547,2.359,4.623,4.488,3.858,7.184
			c-0.647,2.292-2.924,4.016-5.288,3.995c-2.255-0.019-4.491-1.677-5.167-3.835c-0.858-2.731,0.268-5.028,3.628-7.222
			c-7.968,0-15.809,0-23.799,0c3.38,2.177,4.515,4.494,3.646,7.235c-0.711,2.245-3.13,3.946-5.42,3.812
			c-2.441-0.141-4.57-1.91-5.093-4.237c-0.617-2.743,0.566-4.86,3.65-6.602c-0.259-0.539-0.646-1.046-0.751-1.608
			c-1.662-8.772-3.262-17.558-4.948-26.325c-0.284-1.473-0.497-3.435-1.483-4.169C29.172,31.679,27.243,32.142,25.64,32.066z"/>
	</g>
</g>
<g id="Shop" display="none">
	<g display="inline">
		<path fill="#FFFFFF" d="M74.197,59.845c-11.065,0-21.814,0-32.563,0c-0.046-0.278-0.092-0.552-0.139-0.828
			c0.908-0.369,1.792-0.827,2.729-1.096c9.144-2.639,18.306-5.209,27.434-7.905c0.941-0.28,2.361-1.23,2.391-1.918
			c0.208-4.847,0.109-9.705,0.109-14.766c-12.834,0-25.351,0-37.839,0c-0.642-5.721-0.642-5.721-6.512-5.721
			c-4.57,0-4.572,0-4.351,4.644c0.006,0.158,0.071,0.313,0.185,0.792c1.603,0.073,3.532-0.392,4.555,0.368
			c0.987,0.732,1.2,2.695,1.483,4.168c1.686,8.769,3.286,17.553,4.948,26.324c0.105,0.562,0.492,1.073,0.751,1.609
			c-3.083,1.74-4.267,3.859-3.65,6.601c0.523,2.326,2.652,4.097,5.093,4.239c2.29,0.132,4.708-1.569,5.42-3.812
			c0.869-2.742-0.266-5.06-3.646-7.236c7.99,0,15.832,0,23.799,0c-3.36,2.194-4.486,4.489-3.628,7.223
			c0.676,2.156,2.912,3.814,5.167,3.834c2.364,0.018,4.641-1.703,5.288-3.994c0.764-2.696-0.312-4.825-3.858-7.186
			c2.105,0,4.015,0.444,5.586-0.098C75.444,64.222,73.783,61.981,74.197,59.845z"/>
		<path fill="#FFFFFF" d="M50.638,1.573c-27.037,0-48.953,21.918-48.953,48.954c0,27.034,21.917,48.952,48.953,48.952
			c27.036,0,48.953-21.918,48.953-48.952C99.591,23.491,77.674,1.573,50.638,1.573z M50.638,94.583
			c-24.293,0-44.057-19.766-44.057-44.056c0-24.292,19.764-44.058,44.057-44.058c24.294,0,44.058,19.766,44.058,44.058
			C94.696,74.817,74.932,94.583,50.638,94.583z"/>
	</g>
</g>
<g id="Reved_no_circle" display="none">
	<path display="inline" fill="#FFFFFF" d="M69.591,57.581c-0.792,0.346-6.111-4.151-9.51-12.623
		c-3.398-8.474-2.971-16.22-2.182-16.563c0.788-0.344,5.979,5.077,9.376,13.55C70.674,50.417,70.379,57.235,69.591,57.581
		 M71.112,39.898c-4.372-10.9-11.411-19.205-14.975-17.651c-6.044,2.63,3.604,15.274-26.091,28.206
		c-2.565,1.116-3.216,5.583-2.142,8.257c1.071,2.675,4.581,5.332,7.146,4.216c0.444-0.196,2.073-0.757,2.073-0.757
		c1.833,2.637,3.75,1.072,4.428,2.749c0.819,2.01,2.598,6.379,3.199,7.868c0.607,1.486,1.976,2.861,2.971,2.455
		c0.993-0.403,4.369-1.779,5.662-2.304c1.291-0.528,1.6-1.764,1.207-2.734c-0.426-1.05-2.172-1.355-2.67-2.583
		c-0.5-1.225-2.126-5.145-2.595-6.379c-0.637-1.68,0.717-3.052,2.681-3.269c13.516-1.513,16.042,7.431,20.645,5.425
		C76.211,61.851,75.485,50.8,71.112,39.898"/>
</g>
<g id="Reved" display="none">
	<g display="inline">
		<path fill="#FFFFFF" d="M50.638,1.573c-27.037,0-48.953,21.918-48.953,48.954c0,27.034,21.917,48.952,48.953,48.952
			c27.036,0,48.953-21.918,48.953-48.952C99.591,23.491,77.674,1.573,50.638,1.573z M50.638,94.583
			c-24.293,0-44.057-19.766-44.057-44.056c0-24.292,19.764-44.058,44.057-44.058c24.294,0,44.058,19.766,44.058,44.058
			C94.696,74.817,74.932,94.583,50.638,94.583z"/>
		<path fill="#FFFFFF" d="M56.137,23.228c-6.044,2.632,3.604,15.274-26.091,28.204c-2.565,1.116-3.216,5.587-2.142,8.256
			c1.071,2.675,4.581,5.336,7.146,4.22c0.444-0.198,2.073-0.758,2.073-0.758c1.833,2.635,3.75,1.07,4.428,2.747
			c0.819,2.009,2.598,6.38,3.199,7.869c0.607,1.486,1.976,2.86,2.971,2.456c0.993-0.405,4.369-1.783,5.662-2.307
			c1.291-0.527,1.6-1.763,1.207-2.733c-0.426-1.049-2.172-1.355-2.67-2.583c-0.5-1.221-2.126-5.145-2.595-6.379
			c-0.637-1.68,0.717-3.051,2.681-3.268c13.516-1.512,16.042,7.43,20.645,5.426c3.561-1.549,2.834-12.601-1.539-23.499
			C66.74,29.979,59.701,21.675,56.137,23.228z M69.591,58.56c-0.792,0.346-6.111-4.151-9.51-12.623
			c-3.398-8.474-2.971-16.217-2.182-16.563c0.788-0.342,5.979,5.077,9.376,13.551C70.674,51.396,70.379,58.215,69.591,58.56z"/>
	</g>
</g>
<g id="PropertySmarts_no_circle" display="none">
	<g display="inline">
		<path fill-rule="evenodd" clip-rule="evenodd" fill="#FFFFFF" d="M70.479,39.86c-0.781,2.609-1.231,5.383-2.421,7.792
			c-2.155,4.374-6.154,5.864-10.819,5.519c-2.064-0.153-3.321,0.461-4.196,2.359c-0.709,1.542-1.833,2.889-2.632,4.396
			c-0.917,1.73-1.992,3.046-4.155,3.242c-0.634,0.06-1.335,0.826-1.76,1.437c-1.067,1.535-2.198,3.079-2.935,4.78
			c-1.382,3.188-4.013,4.092-7.073,4.163c-0.71,0.017-1.94-0.751-2.08-1.351c-0.783-3.405-1.361-6.658,1.237-9.923
			c3.384-4.258,6.076-9.057,9.241-13.497c1.432-2.009,1.809-3.693,0.897-6.165c-2.166-5.873-0.491-10.806,4.276-14.227
			c5.269-3.785,11.739-4.063,16.401-0.588C68.424,30.747,70.119,34.814,70.479,39.86z M58.206,30.359
			c-0.4,0.093-1.204,0.039-1.625,0.413c-1.276,1.143-2.919,2.283-3.391,3.751c-0.271,0.848,1.288,2.505,2.322,3.484
			c1.281,1.215,2.854,2.127,4.331,3.128c1.301,0.88,2.453,0.635,3.38-0.618c1.545-2.086,1.742-4.346,0.642-6.651
			C62.798,31.632,60.963,30.443,58.206,30.359z"/>
	</g>
</g>
<g id="PropertySmarts" display="none">
	<g display="inline">
		<path fill="#FFFFFF" d="M64.463,28.776c-4.662-3.476-11.132-3.197-16.401,0.586c-4.768,3.425-6.442,8.355-4.276,14.23
			c0.912,2.469,0.535,4.155-0.897,6.163c-3.165,4.44-5.857,9.239-9.241,13.497c-2.598,3.265-2.021,6.517-1.237,9.923
			c0.14,0.601,1.37,1.365,2.08,1.35c3.06-0.069,5.69-0.974,7.073-4.162c0.737-1.699,1.868-3.245,2.935-4.78
			c0.425-0.608,1.125-1.377,1.76-1.435c2.164-0.199,3.238-1.514,4.155-3.243c0.799-1.508,1.923-2.854,2.632-4.396
			c0.875-1.899,2.131-2.513,4.196-2.36c4.665,0.347,8.664-1.145,10.819-5.518c1.189-2.41,1.64-5.184,2.421-7.794
			C70.119,35.796,68.424,31.728,64.463,28.776z M63.222,41.496c-0.928,1.253-2.079,1.5-3.38,0.619c-1.476-1-3.049-1.913-4.331-3.129
			c-1.034-0.979-2.592-2.638-2.322-3.483c0.471-1.47,2.115-2.609,3.391-3.748c0.421-0.377,1.225-0.324,1.625-0.416
			c2.758,0.083,4.592,1.272,5.658,3.508C64.964,37.151,64.768,39.412,63.222,41.496z"/>
		<path fill="#FFFFFF" d="M50.638,1.573c-27.037,0-48.953,21.918-48.953,48.954c0,27.034,21.917,48.952,48.953,48.952
			c27.036,0,48.953-21.918,48.953-48.952C99.591,23.491,77.674,1.573,50.638,1.573z M50.638,94.583
			c-24.293,0-44.057-19.766-44.057-44.056c0-24.292,19.764-44.058,44.057-44.058c24.294,0,44.058,19.766,44.058,44.058
			C94.696,74.817,74.932,94.583,50.638,94.583z"/>
	</g>
</g>
<g id="Our_People_no_circle" display="none">
	<path display="inline" fill="#FFFFFF" d="M80.827,83.97c0-3.124-5.186-6.086-11.714-9.101c-0.792-0.404-1.571-0.735-2.207-1.019
		c-7.527-3.358-9.932-6.188-9.932-12.25c0-3.644,2.295-2.451,3.308-9.117c0.417-2.766,2.448-0.048,2.835-6.358
		c0-2.517-1.107-3.139-1.107-3.139s0.562-3.726,0.783-6.591c0.277-3.568-1.687-12.793-12.13-12.793c-0.01,0-0.017,0.002-0.024,0.002
		s-0.017-0.002-0.025-0.002c-10.443,0-12.407,9.225-12.13,12.793c0.221,2.865,0.783,6.591,0.783,6.591s-1.107,0.622-1.107,3.139
		c0.389,6.311,2.418,3.593,2.836,6.358c1.011,6.666,3.307,5.474,3.307,9.117c0,6.062-2.405,8.892-9.932,12.25
		c-0.636,0.283-1.415,0.614-2.208,1.022c-6.527,3.011-11.712,5.973-11.712,9.097v0.675c8.318,6.526,18.799,10.417,30.191,10.417
		c11.388,0,21.869-3.888,30.186-10.41V83.97z"/>
</g>
<g id="Our_People" display="none">
	<path display="inline" fill="#FFFFFF" d="M50.638,1.573c-27.037,0-48.953,21.918-48.953,48.954
		c0,27.034,21.917,48.952,48.953,48.952c27.036,0,48.953-21.918,48.953-48.952C99.591,23.491,77.674,1.573,50.638,1.573z
		 M80.25,83.122c-1.521-2.464-5.895-4.854-11.137-7.271c-0.792-0.408-1.571-0.738-2.207-1.021
		c-7.527-3.359-9.932-6.189-9.932-12.251c0-3.642,2.295-2.45,3.308-9.118c0.417-2.765,2.448-0.045,2.835-6.357
		c0-2.516-1.107-3.141-1.107-3.141s0.562-3.723,0.783-6.591c0.277-3.565-1.687-12.79-12.13-12.79c-0.01,0-0.017,0.001-0.024,0.001
		s-0.017-0.001-0.025-0.001c-10.443,0-12.407,9.225-12.13,12.79c0.221,2.868,0.783,6.591,0.783,6.591s-1.107,0.625-1.107,3.141
		c0.389,6.312,2.418,3.593,2.836,6.357c1.011,6.668,3.307,5.477,3.307,9.118c0,6.062-2.405,8.892-9.932,12.251
		c-0.636,0.282-1.415,0.612-2.208,1.021c-5.242,2.418-9.614,4.808-11.135,7.271C12.157,75.056,6.581,63.43,6.581,50.527
		c0-24.292,19.764-44.058,44.057-44.058c24.294,0,44.058,19.766,44.058,44.058C94.696,63.43,89.119,75.056,80.25,83.122z"/>
</g>
<g id="Membership_no_circle" display="none">
	<g display="inline">
		<path fill="#FFFFFF" d="M67.63,86.673c0-3.707-6.845-7.203-14.895-10.795c-8.025-3.581-10.593-6.598-10.593-13.061
			c0-3.889,2.452-2.616,3.528-9.725c0.444-2.951,2.609-0.052,3.023-6.782c0-2.682-1.181-3.349-1.181-3.349s0.602-3.97,0.838-7.027
			c0.289-3.805-1.799-13.644-12.94-13.644c-11.138,0-13.231,9.839-12.937,13.644c0.235,3.058,0.835,7.027,0.835,7.027
			s-1.181,0.667-1.181,3.349c0.415,6.73,2.58,3.831,3.026,6.782c1.078,7.108,3.525,5.836,3.525,9.725
			c0,6.463-2.565,9.479-10.59,13.061c-1.755,0.783-4.506,1.88-5.923,3.937c8.963,11.381,22.866,18.687,38.476,18.687
			c5.973,0,11.697-1.072,16.989-3.03V86.673z"/>
		<path fill="#FFFFFF" d="M80.62,73.441c-6.02-2.685-7.943-4.951-7.943-9.802c0-2.91,1.839-1.961,2.645-7.289
			c0.334-2.212,1.959-0.037,2.269-5.085c0-2.013-0.885-2.514-0.885-2.514s0.452-2.978,0.625-5.27
			c0.22-2.854-1.348-10.231-9.7-10.231c-8.356,0-9.923,7.377-9.702,10.231c0.173,2.292,0.624,5.27,0.624,5.27
			s-0.885,0.501-0.885,2.514c0.309,5.048,1.933,2.873,2.267,5.085c0.809,5.328,2.647,4.379,2.647,7.289
			c0,3.298-0.895,5.402-3.36,7.255c13.153,7.023,14.914,8.453,14.914,14.735v6.872c6.226-3.413,11.627-8.138,15.834-13.804
			C88.188,76.985,85.211,75.491,80.62,73.441z"/>
	</g>
</g>
<g id="Membership_x0D_" display="none">
	<path display="inline" fill="#FFFFFF" d="M86.725,83.602c0.169-0.187,0.337-0.373,0.504-0.562c0.112-0.126,0.224-0.249,0.334-0.377
		c0.18-0.205,0.356-0.416,0.533-0.625c0.093-0.11,0.188-0.219,0.28-0.332c0.263-0.316,0.522-0.636,0.777-0.96
		c0.061-0.08,0.121-0.157,0.182-0.235c0.195-0.252,0.388-0.505,0.578-0.76c0.02-0.026,0.039-0.049,0.057-0.073
		c0-0.002,0-0.002-0.001-0.003c6.045-8.143,9.623-18.227,9.623-29.147c0-27.036-21.917-48.954-48.953-48.954
		c-27.037,0-48.953,21.918-48.953,48.954c0,12.385,4.604,23.695,12.188,32.319c0.026,0.028,0.052,0.058,0.078,0.085
		c0.266,0.303,0.536,0.6,0.809,0.894c0.035,0.037,0.071,0.075,0.107,0.114c0.273,0.293,0.551,0.583,0.831,0.869
		c0.029,0.027,0.056,0.058,0.083,0.086c1.25,1.268,2.567,2.466,3.947,3.591c0.038,0.03,0.075,0.061,0.112,0.089
		c0.3,0.245,0.603,0.484,0.909,0.721c0.059,0.044,0.119,0.091,0.179,0.136c0.291,0.225,0.585,0.442,0.882,0.66
		c0.062,0.045,0.122,0.09,0.184,0.133c0.312,0.227,0.627,0.447,0.944,0.666c0.042,0.029,0.083,0.06,0.126,0.09
		c1.099,0.749,2.231,1.455,3.392,2.117c0.052,0.03,0.103,0.059,0.154,0.086c0.325,0.185,0.652,0.363,0.983,0.541
		c0.086,0.046,0.173,0.091,0.261,0.137c0.3,0.158,0.602,0.314,0.905,0.466c0.098,0.049,0.195,0.098,0.292,0.145
		c0.304,0.152,0.61,0.297,0.918,0.441c0.091,0.041,0.182,0.085,0.272,0.127c0.341,0.155,0.682,0.306,1.026,0.455
		c0.057,0.024,0.115,0.052,0.172,0.077c0.821,0.349,1.65,0.678,2.494,0.982c0.063,0.022,0.128,0.046,0.191,0.067
		c0.346,0.124,0.693,0.244,1.043,0.361c0.114,0.038,0.228,0.073,0.343,0.111c0.303,0.1,0.607,0.194,0.914,0.287
		c0.13,0.041,0.262,0.078,0.394,0.117c0.295,0.086,0.592,0.169,0.889,0.251c0.134,0.037,0.269,0.073,0.403,0.111
		c0.309,0.079,0.62,0.159,0.931,0.232c0.12,0.03,0.239,0.061,0.36,0.088c0.373,0.088,0.749,0.172,1.125,0.251
		c0.058,0.012,0.115,0.024,0.172,0.036c0.443,0.091,0.891,0.18,1.339,0.259c0.06,0.009,0.12,0.021,0.181,0.029
		c0.376,0.065,0.754,0.125,1.133,0.184c0.138,0.02,0.276,0.038,0.415,0.056c0.303,0.045,0.608,0.085,0.915,0.123
		c0.161,0.019,0.323,0.037,0.484,0.055c0.287,0.03,0.575,0.061,0.863,0.088c0.168,0.019,0.338,0.032,0.507,0.048
		c0.289,0.022,0.579,0.042,0.87,0.062c0.165,0.013,0.329,0.023,0.494,0.032c0.313,0.017,0.628,0.029,0.943,0.041
		c0.141,0.005,0.283,0.011,0.424,0.017c0.456,0.011,0.913,0.02,1.371,0.02c0,0,0,0,0.001,0c0,0,0,0,0.002,0c0,0,0.001,0,0.002,0
		c0.685,0,1.364-0.019,2.042-0.045c0.093-0.004,0.188-0.008,0.281-0.012c0.645-0.029,1.286-0.074,1.925-0.129
		c0.114-0.011,0.229-0.021,0.343-0.031c0.638-0.06,1.271-0.13,1.9-0.212c0.095-0.014,0.188-0.027,0.283-0.04
		c0.656-0.091,1.309-0.194,1.956-0.311c0.022-0.002,0.044-0.008,0.064-0.01c0.663-0.122,1.318-0.256,1.97-0.402
		c0.046-0.011,0.092-0.021,0.138-0.029c0.638-0.145,1.271-0.307,1.9-0.476c0.079-0.02,0.161-0.043,0.242-0.064
		c0.618-0.171,1.231-0.354,1.839-0.547c0.076-0.025,0.152-0.052,0.229-0.073c0.619-0.203,1.235-0.415,1.844-0.64
		c0.01-0.002,0.021-0.006,0.03-0.01l0,0c2.252-0.834,4.424-1.827,6.505-2.97v0.001c0.055-0.029,0.108-0.061,0.164-0.094
		c0.302-0.165,0.601-0.334,0.898-0.507c0.105-0.062,0.209-0.123,0.315-0.186c0.259-0.152,0.517-0.308,0.771-0.467
		c0.12-0.069,0.237-0.145,0.354-0.219c0.241-0.151,0.48-0.304,0.719-0.461c0.122-0.078,0.245-0.158,0.365-0.239
		c0.233-0.154,0.464-0.314,0.696-0.472c0.119-0.082,0.238-0.165,0.357-0.25c0.235-0.166,0.471-0.334,0.704-0.506
		c0.107-0.078,0.215-0.154,0.323-0.234c0.262-0.195,0.522-0.394,0.78-0.594c0.073-0.058,0.148-0.113,0.222-0.17
		c0.336-0.264,0.667-0.528,0.994-0.8c0.023-0.018,0.046-0.039,0.069-0.06c0.298-0.244,0.593-0.495,0.884-0.749
		c0.102-0.09,0.203-0.181,0.303-0.269c0.212-0.188,0.422-0.375,0.631-0.567c0.119-0.108,0.236-0.219,0.354-0.328
		c0.188-0.175,0.376-0.354,0.562-0.531c0.123-0.119,0.245-0.236,0.366-0.356c0.177-0.177,0.353-0.352,0.526-0.527
		c0.124-0.125,0.247-0.251,0.368-0.374c0.17-0.179,0.341-0.358,0.508-0.538C86.488,83.859,86.607,83.729,86.725,83.602z
		 M67.63,91.174v-3.521c0-3.708-6.845-7.202-14.895-10.794c-8.025-3.582-10.593-6.6-10.593-13.064c0-3.885,2.452-2.613,3.528-9.724
		c0.444-2.947,2.609-0.048,3.023-6.779c0-2.685-1.181-3.348-1.181-3.348s0.602-3.973,0.838-7.03
		c0.289-3.805-1.799-13.642-12.94-13.642c-11.138,0-13.231,9.837-12.937,13.642c0.235,3.058,0.835,7.03,0.835,7.03
		s-1.181,0.663-1.181,3.348c0.415,6.731,2.58,3.832,3.026,6.779c1.078,7.11,3.525,5.839,3.525,9.724
		c0,6.465-2.565,9.482-10.59,13.064c-0.595,0.264-1.303,0.567-2.037,0.928c-5.929-7.504-9.471-16.977-9.471-27.259
		c0-24.292,19.764-44.058,44.057-44.058c24.294,0,44.058,19.766,44.058,44.058c0,9.896-3.281,19.039-8.809,26.4
		c-1.454-0.77-3.195-1.583-5.267-2.508c-6.02-2.685-7.943-4.951-7.943-9.799c0-2.912,1.839-1.964,2.645-7.289
		c0.334-2.215,1.959-0.039,2.269-5.088c0-2.013-0.885-2.513-0.885-2.513s0.452-2.978,0.625-5.27c0.22-2.855-1.348-10.232-9.7-10.232
		c-8.356,0-9.923,7.377-9.702,10.232c0.173,2.292,0.624,5.27,0.624,5.27s-0.885,0.5-0.885,2.513
		c0.309,5.049,1.933,2.873,2.267,5.088c0.809,5.325,2.647,4.377,2.647,7.289c0,3.297-0.895,5.4-3.36,7.253
		c13.153,7.023,14.914,8.452,14.914,14.735v1.169C72.075,89.083,69.901,90.219,67.63,91.174z"/>
</g>
<g id="Media_no_circle" display="none">
	<g display="inline">
		<path fill-rule="evenodd" clip-rule="evenodd" fill="#FFFFFF" d="M53.599,65.345c0,2.271,0,4.36,0,6.702c2.515,0,4.924,0,7.338,0
			c0.163,0.631,0.323,1.007,0.356,1.398c0.321,3.854,0.24,3.932-3.674,3.932c-4.642,0.005-9.285,0.005-13.928,0
			c-3.604,0-3.654-0.047-3.403-3.716c0.031-0.469,0.197-0.928,0.339-1.563c2.39,0,4.732,0,7.271,0c0-2.315,0-4.456,0-6.516
			c-2.338-0.787-4.738-1.33-6.896-2.372c-4.372-2.112-6.785-5.729-7.05-10.623c-0.124-2.275-0.002-4.559-0.049-6.839
			c-0.032-1.452,0.564-2.027,2.046-2c1.479,0.027,1.759,0.788,1.724,2.027c-0.046,1.708-0.02,3.419-0.007,5.132
			c0.035,4.898,2.36,8.242,7.016,9.692c4.22,1.313,8.503,1.339,12.699-0.197c4.318-1.58,6.488-4.706,6.539-9.283
			c0.021-1.875-0.138-3.765,0.086-5.611c0.081-0.633,0.995-1.456,1.685-1.663c1.221-0.364,2.001,0.289,1.983,1.689
			c-0.033,2.442,0.107,4.894-0.069,7.326c-0.424,5.911-4.409,10.249-10.665,11.792C55.917,64.905,54.876,65.084,53.599,65.345z"/>
		<path fill-rule="evenodd" clip-rule="evenodd" fill="#FFFFFF" d="M58.703,40.196c-5.396,0-10.425,0-15.761,0
			c0-3.933-0.209-7.823,0.135-11.662c0.097-1.078,1.649-2.429,2.839-2.927c3.175-1.331,6.53-1.215,9.786-0.064
			c1.926,0.68,3.079,1.96,3.024,4.2C58.64,33.148,58.703,36.559,58.703,40.196z"/>
		<path fill-rule="evenodd" clip-rule="evenodd" fill="#FFFFFF" d="M58.674,43.97c0,2.862,0.262,5.651-0.125,8.347
			c-0.167,1.164-1.478,2.63-2.615,3.081c-1.829,0.719-3.949,0.98-5.939,0.959c-5.598-0.073-7.113-1.74-7.113-7.323
			c0-1.623,0-3.244,0-5.063C48.114,43.97,53.193,43.97,58.674,43.97z"/>
	</g>
</g>
<g id="Media" display="none">
	<g display="inline">
		<path fill="#FFFFFF" d="M67.673,46.512c0.018-1.399-0.763-2.05-1.983-1.688c-0.69,0.206-1.604,1.029-1.685,1.664
			c-0.224,1.845-0.065,3.735-0.086,5.61c-0.051,4.576-2.221,7.702-6.539,9.282c-4.196,1.536-8.479,1.513-12.699,0.198
			c-4.655-1.453-6.981-4.795-7.016-9.693c-0.013-1.711-0.039-3.424,0.007-5.132c0.036-1.239-0.245-2-1.724-2.027
			c-1.482-0.026-2.079,0.55-2.046,2c0.047,2.279-0.075,4.565,0.049,6.839c0.265,4.895,2.679,8.512,7.05,10.624
			c2.157,1.041,4.557,1.584,6.896,2.371c0,2.061,0,4.201,0,6.517c-2.539,0-4.88,0-7.271,0c-0.142,0.633-0.308,1.094-0.339,1.562
			c-0.251,3.67-0.201,3.719,3.403,3.719c4.644,0,9.286,0,13.928,0c3.914,0,3.995-0.079,3.674-3.932
			c-0.033-0.392-0.193-0.77-0.356-1.4c-2.414,0-4.823,0-7.338,0c0-2.343,0-4.431,0-6.7c1.277-0.263,2.319-0.441,3.341-0.692
			c6.256-1.545,10.241-5.882,10.665-11.792C67.78,51.408,67.64,48.955,67.673,46.512z"/>
		<path fill="#FFFFFF" d="M58.703,41.176c0-3.638-0.063-7.048,0.022-10.452c0.055-2.244-1.098-3.521-3.024-4.201
			c-3.256-1.15-6.611-1.268-9.786,0.064c-1.189,0.498-2.742,1.848-2.839,2.926c-0.344,3.841-0.135,7.729-0.135,11.663
			C48.277,41.176,53.307,41.176,58.703,41.176z"/>
		<path fill="#FFFFFF" d="M42.881,44.949c0,1.817,0,3.439,0,5.063c0,5.581,1.515,7.251,7.113,7.322
			c1.99,0.023,4.111-0.24,5.939-0.959c1.138-0.449,2.448-1.919,2.615-3.083c0.387-2.693,0.125-5.481,0.125-8.344
			C53.193,44.949,48.114,44.949,42.881,44.949z"/>
		<path fill="#FFFFFF" d="M50.638,1.573c-27.037,0-48.953,21.918-48.953,48.954c0,27.034,21.917,48.952,48.953,48.952
			c27.036,0,48.953-21.918,48.953-48.952C99.591,23.491,77.674,1.573,50.638,1.573z M50.638,94.583
			c-24.293,0-44.057-19.766-44.057-44.056c0-24.292,19.764-44.058,44.057-44.058c24.294,0,44.058,19.766,44.058,44.058
			C94.696,74.817,74.932,94.583,50.638,94.583z"/>
	</g>
</g>
<g id="Legal_no_circle" display="none">
	<path display="inline" fill="#FFFFFF" d="M52.877,63.21h-4.481v-4.98H26.989c0,0,0.312,4.479,0.496,8.272
		c0.081,1.571,0.542,4.175,4.479,4.175h37.347c3.938,0,4.391-2.604,4.479-4.175c0.212-3.902,0.494-8.272,0.494-8.272H52.877V63.21z
		 M44.79,33.127c0.569-1.071,0.763-1.282,2.031-1.282h7.634c1.267,0,1.461,0.211,2.03,1.282c0.216,0.402,0.796,1.496,1.432,2.703
		H43.356C43.994,34.623,44.574,33.529,44.79,33.127 M48.396,50.764h4.481v4.977h22.65c0,0-0.366-11.094-0.495-14.57
		c-0.123-3.301-1.305-5.34-4.981-5.34h-7.984c-1.237-2.336-2.567-4.844-2.978-5.613c-0.824-1.556-1.106-1.858-2.938-1.858H45.123
		c-1.831,0-2.113,0.303-2.937,1.858c-0.411,0.77-1.742,3.277-2.978,5.613h-7.986c-3.676,0-4.845,2.039-4.981,5.34
		c-0.136,3.303-0.495,14.57-0.495,14.57h22.649V50.764z"/>
</g>
<g id="Legal" display="none">
	<g display="inline">
		<path fill="#FFFFFF" d="M50.638,1.573c-27.037,0-48.953,21.918-48.953,48.954c0,27.034,21.917,48.952,48.953,48.952
			c27.036,0,48.953-21.918,48.953-48.952C99.591,23.491,77.674,1.573,50.638,1.573z M50.638,94.583
			c-24.293,0-44.057-19.766-44.057-44.056c0-24.292,19.764-44.058,44.057-44.058c24.294,0,44.058,19.766,44.058,44.058
			C94.696,74.817,74.932,94.583,50.638,94.583z"/>
		<path fill="#FFFFFF" d="M70.052,36.809h-7.984c-1.237-2.337-2.567-4.846-2.978-5.613c-0.824-1.555-1.106-1.856-2.938-1.856H45.123
			c-1.831,0-2.113,0.302-2.937,1.856c-0.411,0.768-1.742,3.276-2.978,5.613h-7.986c-3.676,0-4.845,2.041-4.981,5.343
			c-0.136,3.3-0.495,14.567-0.495,14.567h22.649v-4.977h4.481v4.977h22.65c0,0-0.366-11.094-0.495-14.567
			C74.911,38.85,73.728,36.809,70.052,36.809z M43.356,36.809c0.638-1.206,1.218-2.299,1.434-2.701
			c0.569-1.073,0.763-1.284,2.031-1.284h7.634c1.267,0,1.461,0.211,2.03,1.284c0.216,0.402,0.796,1.495,1.432,2.701H43.356z"/>
		<path fill="#FFFFFF" d="M52.877,64.189h-4.481v-4.981H26.989c0,0,0.312,4.478,0.496,8.273c0.081,1.571,0.542,4.176,4.479,4.176
			h37.347c3.938,0,4.391-2.604,4.479-4.176c0.212-3.9,0.494-8.273,0.494-8.273H52.877V64.189z"/>
	</g>
</g>
<g id="Latest_News_no_circle" display="none">
	<g display="inline">
		<path fill-rule="evenodd" clip-rule="evenodd" fill="#FFFFFF" d="M76.754,47.228c0,5.892-0.05,11.785,0.028,17.678
			c0.03,2.187-0.791,3.444-2.869,4.248c-7.236,2.802-14.393,5.807-21.64,8.574c-1.161,0.443-2.782,0.438-3.943,0
			c-7.325-2.798-14.566-5.81-21.867-8.67c-1.873-0.733-2.637-1.932-2.631-3.912c0.037-11.948,0.003-23.895,0.03-35.845
			c0.007-3.325,1.837-4.51,5.032-3.252c6.536,2.57,13.029,5.256,19.594,7.748c1.071,0.406,2.561,0.406,3.633,0
			c6.417-2.429,12.763-5.038,19.14-7.566c3.871-1.535,5.49-0.408,5.493,3.809C76.759,35.767,76.754,41.498,76.754,47.228z
			 M47.009,72.033c0.174-0.342,0.302-0.477,0.302-0.608c0.021-10.214,0.043-20.428,0.006-30.643c-0.002-0.529-0.381-1.367-0.8-1.538
			c-5.852-2.409-11.74-4.724-17.834-7.147c0,10.633-0.014,20.927,0.04,31.217c0.002,0.592,0.424,1.523,0.892,1.713
			C35.391,67.426,41.214,69.718,47.009,72.033z M53.252,72.159c5.792-2.303,11.277-4.551,16.82-6.646
			c1.487-0.564,1.896-1.35,1.884-2.878c-0.068-9.562-0.032-19.123-0.04-28.684c0-0.531-0.063-1.061-0.113-1.82
			c-5.97,2.383-11.728,4.63-17.427,7.022c-0.564,0.238-1.055,1.347-1.076,2.065c-0.105,3.757-0.048,7.517-0.048,11.277
			C53.252,58.934,53.252,65.369,53.252,72.159z"/>
		<path fill-rule="evenodd" clip-rule="evenodd" fill="#FFFFFF" d="M32.513,41.771c3.477,1.389,7.06,2.572,10.364,4.294
			c0.9,0.471,0.962,2.547,1.409,3.885c-0.199,0.136-0.397,0.273-0.595,0.41c-3.603-1.444-7.295-2.708-10.74-4.459
			c-0.806-0.408-0.772-2.467-1.126-3.77C32.054,42.014,32.283,41.893,32.513,41.771z"/>
		<path fill-rule="evenodd" clip-rule="evenodd" fill="#FFFFFF" d="M31.636,53.606c4.321,1.73,7.965,2.955,11.341,4.697
			c0.854,0.443,0.85,2.541,1.419,4.507c-4.31-1.726-7.953-2.951-11.331-4.697C32.212,57.672,32.214,55.58,31.636,53.606z"/>
		<path fill-rule="evenodd" clip-rule="evenodd" fill="#FFFFFF" d="M68.285,41.72c0.432,3.939,0.429,3.933-2.986,5.292
			c-2.793,1.111-5.58,2.229-8.422,3.364c-0.416-3.982-0.418-3.987,2.977-5.337C62.642,43.931,65.437,42.84,68.285,41.72z"/>
		<path fill-rule="evenodd" clip-rule="evenodd" fill="#FFFFFF" d="M56.86,62.525c-0.367-3.953-0.369-3.953,3.042-5.305
			c2.784-1.106,5.57-2.207,8.415-3.328c0.364,3.95,0.366,3.952-3.044,5.307C62.487,60.303,59.702,61.4,56.86,62.525z"/>
	</g>
</g>
<g id="Latest_News_x0D_" display="none">
	<g display="inline">
		<path fill="#FFFFFF" d="M76.754,48.206c0-5.729,0.004-11.458,0-17.188c-0.003-4.216-1.623-5.346-5.493-3.812
			c-6.377,2.531-12.724,5.14-19.14,7.568c-1.072,0.406-2.562,0.407-3.633,0c-6.565-2.492-13.058-5.177-19.594-7.748
			c-3.195-1.258-5.024-0.072-5.032,3.252c-0.027,11.951,0.007,23.896-0.03,35.847c-0.006,1.979,0.759,3.177,2.631,3.912
			c7.3,2.861,14.542,5.872,21.867,8.668c1.161,0.439,2.783,0.443,3.943,0c7.248-2.765,14.404-5.772,21.64-8.573
			c2.078-0.804,2.899-2.063,2.869-4.249C76.705,59.992,76.754,54.097,76.754,48.206z M47.312,72.403
			c0,0.133-0.128,0.268-0.302,0.608c-5.795-2.314-11.618-4.605-17.394-7.006c-0.467-0.193-0.889-1.122-0.892-1.713
			c-0.054-10.29-0.04-20.585-0.04-31.218c6.094,2.425,11.982,4.742,17.834,7.147c0.418,0.173,0.797,1.01,0.8,1.537
			C47.354,51.977,47.333,62.189,47.312,72.403z M70.073,66.493c-5.543,2.096-11.029,4.342-16.82,6.645c0-6.791,0-13.226,0-19.664
			c0-3.758-0.057-7.518,0.048-11.276c0.021-0.717,0.512-1.827,1.076-2.065c5.699-2.392,11.457-4.64,17.427-7.02
			c0.05,0.755,0.113,1.287,0.113,1.818c0.008,9.561-0.028,19.122,0.04,28.681C71.968,65.141,71.56,65.929,70.073,66.493z"/>
		<path fill="#FFFFFF" d="M32.951,46.88c3.444,1.752,7.137,3.016,10.74,4.457c0.198-0.135,0.396-0.272,0.595-0.407
			c-0.446-1.339-0.509-3.415-1.409-3.886c-3.304-1.719-6.887-2.905-10.364-4.293c-0.23,0.121-0.459,0.241-0.689,0.359
			C32.178,44.412,32.145,46.472,32.951,46.88z"/>
		<path fill="#FFFFFF" d="M42.977,59.285c-3.375-1.745-7.02-2.97-11.341-4.7c0.578,1.973,0.576,4.068,1.43,4.507
			c3.377,1.746,7.021,2.973,11.331,4.697C43.826,61.825,43.83,59.726,42.977,59.285z"/>
		<path fill="#FFFFFF" d="M59.854,46.019c-3.395,1.349-3.392,1.354-2.977,5.335c2.842-1.135,5.629-2.254,8.422-3.362
			c3.415-1.359,3.417-1.354,2.986-5.293C65.437,43.818,62.642,44.909,59.854,46.019z"/>
		<path fill="#FFFFFF" d="M59.901,58.199c-3.41,1.351-3.408,1.351-3.042,5.306c2.842-1.126,5.627-2.224,8.412-3.325
			c3.41-1.354,3.408-1.357,3.044-5.308C65.471,55.996,62.686,57.093,59.901,58.199z"/>
		<path fill="#FFFFFF" d="M50.638,1.573c-27.037,0-48.953,21.918-48.953,48.954c0,27.034,21.917,48.952,48.953,48.952
			c27.036,0,48.953-21.918,48.953-48.952C99.591,23.491,77.674,1.573,50.638,1.573z M50.638,94.583
			c-24.293,0-44.057-19.766-44.057-44.056c0-24.292,19.764-44.058,44.057-44.058c24.294,0,44.058,19.766,44.058,44.058
			C94.696,74.817,74.932,94.583,50.638,94.583z"/>
	</g>
</g>
<g id="Events_no_circle" display="none">
	<path display="inline" fill="#FFFFFF" d="M78.352,34.622c-37.398,14.19-22.25-24.008-51.251-3.898l-6.066,2.065l12.015,44.779
		h6.616l-5.883-21.932c25.877-20.567,15.398,22.408,46.008-19.758C80.497,34.9,79.548,34.167,78.352,34.622"/>
</g>
<g id="Events" display="none">
	<g display="inline">
		<path fill="#FFFFFF" d="M50.638,1.573c-27.037,0-48.953,21.918-48.953,48.954c0,27.034,21.917,48.952,48.953,48.952
			c27.036,0,48.953-21.918,48.953-48.952C99.591,23.491,77.674,1.573,50.638,1.573z M50.638,94.583
			c-24.293,0-44.057-19.766-44.057-44.056c0-24.292,19.764-44.058,44.057-44.058c24.294,0,44.058,19.766,44.058,44.058
			C94.696,74.817,74.932,94.583,50.638,94.583z"/>
		<path fill="#FFFFFF" d="M78.352,35.601c-37.398,14.19-22.25-24.007-51.251-3.897l-6.066,2.064l12.015,44.779h6.616l-5.883-21.932
			C59.659,36.048,49.181,79.023,79.791,36.86C80.497,35.879,79.548,35.146,78.352,35.601z"/>
	</g>
</g>
<g id="Eforms_no_circle" display="none">
	<g display="inline">
		<path fill-rule="evenodd" clip-rule="evenodd" fill="#FFFFFF" d="M33.178,52.08c0-6.11-0.024-12.224,0.024-18.333
			c0.01-0.938,0.114-2.044,0.616-2.76c0.494-0.706,1.511-1.231,2.38-1.393c0.335-0.062,1.049,1.031,1.333,1.706
			c2.348,5.617,2.331,5.626,8.336,5.626c4.563,0,9.13-0.096,13.689,0.049c1.792,0.058,2.655-0.552,3.123-2.207
			c0.375-1.326,1.066-2.557,1.49-3.87c0.621-1.915,1.855-1.75,2.904-0.677c0.713,0.727,1.272,1.956,1.279,2.963
			c0.085,12.631,0.069,25.261,0.042,37.889c-0.004,2.341-1.254,3.651-3.634,3.666c-9.29,0.059-18.579,0.059-27.866,0.003
			c-2.531-0.014-3.693-1.297-3.706-3.839C33.158,64.629,33.178,58.354,33.178,52.08z"/>
		<path fill-rule="evenodd" clip-rule="evenodd" fill="#FFFFFF" d="M61.861,29.555c0.018,0.354,0.048,0.443,0.022,0.511
			c-1.724,4.418-1.724,4.418-6.566,4.418c-3.507,0-7.024-0.172-10.516,0.059c-2.404,0.158-3.882-0.482-4.444-2.905
			c-0.142-0.613-0.496-1.177-0.859-2.009c0.609-0.081,1.065-0.262,1.473-0.181c3.027,0.59,4.721-0.599,5.278-3.645
			c0.098-0.54,0.865-1.317,1.369-1.354c2.109-0.152,4.243-0.152,6.351,0c0.504,0.036,1.292,0.826,1.366,1.354
			c0.482,3.376,2.591,4.076,5.527,3.64C61.169,29.398,61.499,29.511,61.861,29.555z"/>
	</g>
</g>
<g id="Eforms" display="none">
	<g display="inline">
		<path fill="#FFFFFF" d="M67.073,31.201c-1.049-1.075-2.284-1.239-2.904,0.678c-0.424,1.312-1.116,2.544-1.49,3.868
			c-0.468,1.657-1.331,2.265-3.123,2.208c-4.559-0.144-9.126-0.048-13.689-0.048c-6.005,0-5.988-0.008-8.336-5.626
			c-0.284-0.676-0.997-1.77-1.333-1.706c-0.87,0.16-1.886,0.685-2.38,1.391c-0.502,0.718-0.606,1.821-0.616,2.76
			c-0.048,6.111-0.024,12.223-0.024,18.333c0,6.274-0.02,12.549,0.01,18.823c0.013,2.544,1.175,3.823,3.706,3.84
			c9.288,0.056,18.577,0.056,27.866-0.004c2.38-0.014,3.63-1.325,3.634-3.665c0.027-12.629,0.043-25.258-0.042-37.89
			C68.345,33.155,67.786,31.93,67.073,31.201z"/>
		<path fill="#FFFFFF" d="M44.801,35.521c3.492-0.229,7.008-0.059,10.516-0.059c4.842,0,4.842,0,6.566-4.42
			c0.026-0.065-0.004-0.155-0.022-0.509c-0.362-0.045-0.692-0.157-1-0.11c-2.937,0.434-5.045-0.267-5.527-3.644
			c-0.075-0.525-0.862-1.315-1.366-1.353c-2.107-0.152-4.241-0.152-6.351,0c-0.504,0.037-1.271,0.814-1.369,1.353
			c-0.557,3.049-2.251,4.236-5.278,3.646c-0.408-0.078-0.863,0.1-1.473,0.182c0.363,0.831,0.718,1.396,0.859,2.009
			C40.919,35.038,42.397,35.679,44.801,35.521z"/>
		<path fill="#FFFFFF" d="M50.638,1.573c-27.037,0-48.953,21.918-48.953,48.954c0,27.034,21.917,48.952,48.953,48.952
			c27.036,0,48.953-21.918,48.953-48.952C99.591,23.491,77.674,1.573,50.638,1.573z M50.638,94.583
			c-24.293,0-44.057-19.766-44.057-44.056c0-24.292,19.764-44.058,44.057-44.058c24.294,0,44.058,19.766,44.058,44.058
			C94.696,74.817,74.932,94.583,50.638,94.583z"/>
	</g>
</g>
<g id="Education_no_circle" display="none">
	<path display="inline" fill="#FFFFFF" d="M70.442,67.148c-0.181,1.099,3.67,2.904,4.035-0.312
		c1.655-14.492-1.189-18.665-1.189-18.665l-3.987,2.232C69.301,50.404,72.681,53.621,70.442,67.148 M77.713,41.9L53.921,28.573
		c-1.866-1.043-4.914-1.043-6.779,0L23.35,41.9c-1.864,1.043-1.864,2.75,0,3.794l23.793,13.321c1.865,1.048,4.913,1.048,6.779,0
		l15.38-8.611l-16.679-3.907c-0.64,0.16-1.348,0.25-2.089,0.25c-3.004,0-5.44-1.448-5.44-3.239c0-1.786,2.436-3.234,5.44-3.234
		c2.333,0,4.314,0.876,5.09,2.102l17.665,5.797l4.425-2.478C79.577,44.65,79.577,42.943,77.713,41.9 M31.391,55.913
		c1.323,5.368,3.011,7.717,8.637,10.178c5.626,2.459,8.299,5.142,10.505,5.142c2.208,0,4.709-2.352,10.336-4.811
		c5.625-2.46,4.124-3.212,5.453-8.579l-15.789,7.673L31.391,55.913z"/>
</g>
<g id="Education">
	<g>
		<path fill="#FFFFFF" d="M50.638,1.573c-27.037,0-48.953,21.918-48.953,48.954c0,27.034,21.917,48.952,48.953,48.952
			c27.036,0,48.953-21.918,48.953-48.952C99.591,23.491,77.674,1.573,50.638,1.573z M50.638,94.583
			c-24.293,0-44.057-19.766-44.057-44.056c0-24.292,19.764-44.058,44.057-44.058c24.294,0,44.058,19.766,44.058,44.058
			C94.696,74.817,74.932,94.583,50.638,94.583z"/>
		<path fill="#FFFFFF" d="M70.442,68.126c-0.181,1.103,3.67,2.903,4.035-0.312c1.655-14.488-1.189-18.663-1.189-18.663l-3.987,2.232
			C69.301,51.384,72.681,54.6,70.442,68.126z"/>
		<path fill="#FFFFFF" d="M31.391,56.892c1.323,5.368,3.011,7.717,8.637,10.178c5.626,2.459,8.299,5.143,10.505,5.143
			c2.208,0,4.709-2.354,10.336-4.812c5.625-2.46,4.124-3.211,5.453-8.578l-15.789,7.672L31.391,56.892z"/>
		<path fill="#FFFFFF" d="M77.713,42.88L53.921,29.552c-1.866-1.043-4.914-1.043-6.779,0L23.35,42.88
			c-1.864,1.042-1.864,2.751,0,3.792l23.793,13.32c1.865,1.05,4.913,1.05,6.779,0l15.38-8.608l-16.679-3.908
			c-0.64,0.16-1.348,0.25-2.089,0.25c-3.004,0-5.44-1.449-5.44-3.237c0-1.787,2.436-3.236,5.44-3.236
			c2.333,0,4.314,0.875,5.09,2.101l17.665,5.799l4.425-2.479C79.577,45.631,79.577,43.922,77.713,42.88z"/>
	</g>
</g>
<g id="Core_Services_no_circle" display="none">
	<path display="inline" fill="#FFFFFF" d="M29.42,69.524c-0.597,0.585-0.597,1.546,0,2.141l2.737,2.625
		c0.6,0.591,1.548,0.345,2.149-0.248l14.12-13.628l-4.329-4.836L29.42,69.524z M78.802,30.936c-0.21-1.398-0.951-1.103-1.333-0.51
		c-0.376,0.591-2.069,3.109-2.768,4.246c-0.69,1.137-2.392,3.366-5.563,1.163c-3.304-2.291-2.156-3.892-1.578-4.97
		c0.579-1.08,2.352-4.109,2.611-4.49c0.255-0.378-0.043-1.488-1.067-1.024c-1.027,0.465-7.26,2.899-8.126,6.382
		c-0.883,3.55,0.74,6.72-2.446,9.874l-3.862,3.952l3.877,4.426l4.765-4.436c1.134-1.12,3.555-2.207,5.748-1.72
		c4.698,1.047,7.259-0.688,8.808-3.552C79.245,37.717,79.018,32.328,78.802,30.936 M46.983,42.278
		c-0.343-0.389-0.771-0.398-1.145-0.075l-4.128,3.531c-0.324,0.279-0.367,0.803-0.075,1.128l23.863,26.656
		c0.556,0.632,1.526,0.701,2.163,0.148l2.793-2.292c0.633-0.548,0.702-1.506,0.146-2.14L46.983,42.278z M30.557,40.821
		c2.685-2.049,4.914-0.639,7.887,2.739c0.333,0.378,0.783-0.062,1.039-0.283c0.253-0.217,4.175-3.681,4.366-3.844
		c0.193-0.166,0.424-0.475,0.117-0.824c-0.305-0.346-1.421-1.762-2.136-2.683c-5.203-6.68,14.233-11.208,11.247-11.282
		c-1.519-0.038-7.614-0.107-8.522-0.01c-3.696,0.382-8.33,3.769-10.662,5.344c-3.05,2.058-4.19,3.257-4.381,3.421
		c-0.864,0.739-0.139,2.449-1.702,3.793c-1.655,1.428-2.687,0.353-3.643,1.175c-0.478,0.411-1.805,1.388-2.186,1.716
		c-0.381,0.33-0.452,0.889-0.06,1.329c0,0,3.633,3.946,3.938,4.292c0.307,0.351,1.125,0.641,1.633,0.202
		c0.513-0.438,1.817-1.563,2.04-1.759C29.757,43.958,29.389,41.715,30.557,40.821"/>
</g>
<g id="Core_Services" display="none">
	<g display="inline">
		<path fill="#FFFFFF" d="M50.638,1.573c-27.037,0-48.953,21.918-48.953,48.954c0,27.034,21.917,48.952,48.953,48.952
			c27.036,0,48.953-21.918,48.953-48.952C99.591,23.491,77.674,1.573,50.638,1.573z M50.638,94.583
			c-24.293,0-44.057-19.766-44.057-44.056c0-24.292,19.764-44.058,44.057-44.058c24.294,0,44.058,19.766,44.058,44.058
			C94.696,74.817,74.932,94.583,50.638,94.583z"/>
		<path fill="#FFFFFF" d="M30.557,41.801c2.685-2.047,4.914-0.64,7.887,2.739c0.333,0.378,0.783-0.063,1.039-0.283
			c0.253-0.218,4.175-3.681,4.366-3.845c0.193-0.164,0.424-0.475,0.117-0.822c-0.305-0.346-1.421-1.765-2.136-2.683
			c-5.203-6.682,14.233-11.209,11.247-11.282c-1.519-0.038-7.614-0.108-8.522-0.012c-3.696,0.384-8.33,3.768-10.662,5.343
			c-3.05,2.061-4.19,3.259-4.381,3.422c-0.864,0.741-0.139,2.449-1.702,3.793c-1.655,1.429-2.687,0.353-3.643,1.177
			c-0.478,0.409-1.805,1.386-2.186,1.716c-0.381,0.328-0.452,0.887-0.06,1.328c0,0,3.633,3.945,3.938,4.292
			c0.307,0.348,1.125,0.641,1.633,0.203c0.513-0.438,1.817-1.565,2.04-1.76C29.757,44.938,29.389,42.693,30.557,41.801z"/>
		<path fill="#FFFFFF" d="M77.469,31.403c-0.376,0.593-2.069,3.11-2.768,4.248c-0.69,1.136-2.392,3.368-5.563,1.161
			c-3.304-2.292-2.156-3.89-1.578-4.968c0.579-1.079,2.352-4.107,2.611-4.492c0.255-0.377-0.043-1.485-1.067-1.022
			c-1.027,0.465-7.26,2.897-8.126,6.382c-0.883,3.551,0.74,6.719-2.446,9.872l-3.862,3.953l3.877,4.427l4.765-4.436
			c1.134-1.118,3.555-2.206,5.748-1.72c4.698,1.045,7.259-0.688,8.808-3.551c1.377-2.562,1.151-7.95,0.935-9.345
			C78.592,30.516,77.852,30.812,77.469,31.403z"/>
		<path fill="#FFFFFF" d="M29.42,70.502c-0.597,0.588-0.597,1.548,0,2.142l2.737,2.626c0.6,0.589,1.548,0.344,2.149-0.25
			l14.12-13.627l-4.329-4.835L29.42,70.502z"/>
		<path fill="#FFFFFF" d="M46.983,43.26c-0.343-0.393-0.771-0.401-1.145-0.081l-4.128,3.534c-0.324,0.283-0.367,0.803-0.075,1.129
			l23.863,26.657c0.556,0.63,1.526,0.699,2.163,0.147l2.793-2.293c0.633-0.548,0.702-1.507,0.146-2.139L46.983,43.26z"/>
	</g>
</g>
<g id="About_REINZ_no_circle" display="none">
	<g display="inline">
		<path fill-rule="evenodd" clip-rule="evenodd" fill="#FFFFFF" d="M54.86,67.865c1.421,0.435,5.16-2.301,6.346-2.897
			c0.397,0.5,0.934,1.175,1.602,2.012c-4.489,4.471-9.418,7.972-15.559,9.382c-3.564,0.816-5.653-0.773-5.171-4.356
			c0.689-5.142,2.026-10.196,3.1-15.287c0.43-2.034,0.899-4.058,1.515-6.831c-2.865,1.208-5.063,2.136-7.499,3.162
			c-0.402-0.652-0.848-1.377-1.361-2.214c4.839-4.096,9.987-7.327,15.958-9.02c3.947-1.121,5.929,0.641,5.083,4.713
			c-1.244,5.972-2.875,11.865-4.304,17.8C54.317,65.379,53.493,67.451,54.86,67.865z"/>
		<path fill-rule="evenodd" clip-rule="evenodd" fill="#FFFFFF" d="M49.734,29.446c0.009-3.925,2.992-6.857,7.008-6.888
			c3.438-0.025,5.579,2.058,5.548,5.4c-0.032,3.69-3.381,6.837-7.244,6.807C51.634,34.736,49.727,32.827,49.734,29.446z"/>
	</g>
</g>
<g id="About_REINZ" display="none">
	<g display="inline">
		<path fill="#FFFFFF" d="M54.86,68.848c-1.368-0.418-0.543-2.488-0.291-3.54c1.428-5.936,3.06-11.827,4.304-17.801
			c0.846-4.072-1.136-5.834-5.083-4.714c-5.971,1.695-11.119,4.924-15.958,9.02c0.513,0.838,0.959,1.564,1.361,2.216
			c2.435-1.025,4.634-1.954,7.499-3.161c-0.616,2.771-1.084,4.795-1.515,6.83c-1.073,5.09-2.41,10.145-3.1,15.285
			c-0.481,3.586,1.607,5.174,5.171,4.357c6.141-1.41,11.07-4.911,15.559-9.382c-0.668-0.837-1.205-1.512-1.602-2.013
			C60.021,66.543,56.281,69.278,54.86,68.848z"/>
		<path fill="#FFFFFF" d="M55.046,35.745c3.863,0.03,7.212-3.118,7.244-6.809c0.03-3.342-2.11-5.426-5.548-5.399
			c-4.016,0.029-7,2.962-7.008,6.889C49.727,33.807,51.634,35.718,55.046,35.745z"/>
		<path fill="#FFFFFF" d="M50.638,1.573c-27.037,0-48.953,21.918-48.953,48.954c0,27.034,21.917,48.952,48.953,48.952
			c27.036,0,48.953-21.918,48.953-48.952C99.591,23.491,77.674,1.573,50.638,1.573z M50.638,94.583
			c-24.293,0-44.057-19.766-44.057-44.056c0-24.292,19.764-44.058,44.057-44.058c24.294,0,44.058,19.766,44.058,44.058
			C94.696,74.817,74.932,94.583,50.638,94.583z"/>
	</g>
</g>
</svg>
