<?xml version="1.0" encoding="utf-8"?>
<!-- Generator: Adobe Illustrator 18.1.1, SVG Export Plug-In . SVG Version: 6.00 Build 0)  -->
<!DOCTYPE svg PUBLIC "-//W3C//DTD SVG 1.1//EN" "http://www.w3.org/Graphics/SVG/1.1/DTD/svg11.dtd">
<svg version="1.1" id="Layer_1" xmlns="http://www.w3.org/2000/svg" xmlns:xlink="http://www.w3.org/1999/xlink" x="0px" y="0px"
	 viewBox="0 0 135.1 34.8" enable-background="new 0 0 135.1 34.8" xml:space="preserve">
<g>
	<path fill="#FFFFFF" d="M37.9,8.3H42l5.1,9.2c0.2,0.4,0.5,0.9,0.7,1.3c0.1,0.2,0.3,0.9,0.4,1h0.1l-0.1-2c-0.1-1.3-0.1-1.5-0.1-2.2
		V8.3h4v19.6h-3.5l-5.2-9.5c-0.4-0.8-0.5-0.9-1.5-3.2h-0.1c0,0.6,0.1,3.1,0.1,3.6v9.2h-4V8.3z"/>
	<polygon fill="#FFFFFF" points="54.4,8.3 67.5,8.3 67.5,11.8 59.1,24.3 67.5,24.3 67.5,27.9 53.8,27.9 53.8,24.4 62.4,11.9 
		54.4,11.9 	"/>
	<path fill="#FFFFFF" d="M5.1,16.7c2.4,0,2.8,0,3.4-0.2C9.9,16,10,15,10,13.9c0-1.4-0.4-2-1.3-2.4c-0.7-0.2-1.2-0.2-3.6-0.2V16.7z
		 M5.1,27.9H1V8.2h6.2c3.2,0,7.2,0.4,7.2,5.7c0,2.5-1,4.4-3.8,5.2l4.3,8.7h-4.7l-3.7-8H5.1V27.9z"/>
	<polygon fill="#FFFFFF" points="15.9,8.2 28.2,8.2 28.2,11.8 20.2,11.8 20.2,16 26.2,16 26.2,19.6 20.2,19.6 20.2,24.3 28.1,24.3 
		28.1,27.9 15.9,27.9 	"/>
	<polygon fill="#FFFFFF" points="31.5,27.9 31.5,10 29.7,10 29.7,8.2 35.8,8.2 35.8,27.9 	"/>
	<line fill="none" stroke="#FFFFFF" stroke-width="0.872" x1="72.7" y1="8.2" x2="72.7" y2="28.1"/>
	<path fill="#FFFFFF" d="M79.2,10.5c0.7,0,0.9-0.2,0.9-0.8c0-0.3-0.1-0.5-0.3-0.6c-0.1-0.1-0.3-0.1-0.6-0.1h-0.7v1.4H79.2z
		 M77.5,8.9l0.1-0.6l0.3,0c0.3,0,0.5,0.1,0.8,0.1h0.8c0.6,0,0.9,0.1,1.1,0.3c0.3,0.2,0.4,0.6,0.4,1c0,0.4-0.2,0.8-0.4,1
		c-0.1,0.1-0.2,0.1-0.4,0.2l1.1,1.9l-0.8,0.3l-1.1-2.1h-0.8V13h-0.8V9L77.5,8.9z"/>
	<path fill="#FFFFFF" d="M81.7,8.9l0.1-0.6l0.3,0c0.3,0,0.5,0.1,0.8,0.1h2v0.7h-2v1.2h1.6v0.7h-1.6v1.4H85V13h-2.8V9L81.7,8.9z"/>
	<path fill="#FFFFFF" d="M88,11L87.4,9h-0.1L86.7,11H88z M86.3,8.9l0.2-0.5l0.2,0c0.2,0,0.3,0,0.5,0h0.7l1.6,4.5l-0.8,0.2l-0.5-1.5
		h-1.6L86,13.1l-0.8-0.2L86.7,9L86.3,8.9z"/>
	<polygon fill="#FFFFFF" points="90,8.9 90.2,8.3 91,8.5 91,12.3 93,12.3 93,13 90.3,13 90.3,9 	"/>
	<path fill="#FFFFFF" d="M95.3,8.9l0.1-0.6l0.3,0c0.3,0,0.5,0.1,0.8,0.1h2v0.7h-2v1.2H98v0.7h-1.6v1.4h2.1V13h-2.8V9L95.3,8.9z"/>
	<path fill="#FFFFFF" d="M99.5,11.6c0.1,0.7,0.4,0.9,1,0.9c0.6,0,0.9-0.3,0.9-0.7c0-0.3-0.1-0.5-0.5-0.6c-0.1-0.1-0.3-0.1-0.5-0.2
		c-0.3-0.1-0.5-0.1-0.6-0.2c-0.5-0.2-0.7-0.6-0.7-1.1c0-0.8,0.6-1.3,1.5-1.3c0.8,0,1.3,0.3,1.5,1l-0.7,0.2C101.3,9.1,101,9,100.6,9
		c-0.5,0-0.8,0.3-0.8,0.7c0,0.3,0.1,0.4,0.4,0.5c0.1,0,0.2,0.1,0.5,0.2c0.5,0.1,0.8,0.2,1,0.4c0.3,0.2,0.4,0.6,0.4,1
		c0,0.9-0.6,1.4-1.7,1.4c-1,0-1.4-0.4-1.6-1.3L99.5,11.6z"/>
	<polygon fill="#FFFFFF" points="103.7,9.1 102.5,9.1 102.5,8.4 105.8,8.4 105.8,9.1 104.5,9.1 104.5,13 103.7,13 	"/>
	<path fill="#FFFFFF" d="M108.8,11L108.1,9h-0.1l-0.6,1.9H108.8z M107,8.9l0.2-0.5l0.2,0c0.2,0,0.3,0,0.5,0h0.7l1.6,4.5l-0.8,0.2
		l-0.5-1.5h-1.6l-0.5,1.5l-0.8-0.2l1.4-3.9L107,8.9z"/>
	<polygon fill="#FFFFFF" points="110.9,9.1 109.7,9.1 109.7,8.4 113,8.4 113,9.1 111.7,9.1 111.7,13 110.9,13 	"/>
	<path fill="#FFFFFF" d="M113.4,8.9l0.1-0.6l0.3,0c0.3,0,0.5,0.1,0.8,0.1h2v0.7h-2v1.2h1.6v0.7h-1.6v1.4h2.1V13h-2.8V9L113.4,8.9z"
		/>
	<polygon fill="#FFFFFF" points="77.9,20.5 77.9,16.5 77.6,16.4 77.8,15.8 78.6,16 78.6,20.5 	"/>
	<path fill="#FFFFFF" d="M82.4,16.4l0.2-0.6l0.9,0.2v4.5h-0.8L81.1,18c-0.2-0.4-0.4-0.8-0.6-1.2c0,0.4,0.1,0.8,0.1,1.2v2.5h-0.7v-4
		l-0.3-0.1l0.1-0.6l1.1,0.2l1.5,2.5c0.2,0.3,0.4,0.7,0.5,1c0-0.5-0.1-0.8-0.1-1.3v-1.8L82.4,16.4z"/>
	<path fill="#FFFFFF" d="M84.7,19.1c0.1,0.7,0.4,0.9,1,0.9c0.6,0,0.9-0.3,0.9-0.7c0-0.3-0.1-0.5-0.5-0.6c-0.1-0.1-0.3-0.1-0.5-0.2
		c-0.3-0.1-0.5-0.1-0.6-0.2c-0.5-0.2-0.7-0.6-0.7-1.1c0-0.8,0.6-1.3,1.5-1.3c0.8,0,1.3,0.3,1.5,1L86.6,17c-0.1-0.4-0.3-0.6-0.8-0.6
		c-0.5,0-0.8,0.3-0.8,0.7c0,0.3,0.1,0.4,0.4,0.5c0.1,0,0.2,0.1,0.5,0.2c0.5,0.1,0.8,0.2,1,0.4c0.3,0.2,0.4,0.6,0.4,1
		c0,0.9-0.6,1.4-1.7,1.4c-1,0-1.4-0.4-1.6-1.3L84.7,19.1z"/>
	<polygon fill="#FFFFFF" points="89,16.6 87.7,16.6 87.7,15.9 91,15.9 91,16.6 89.7,16.6 89.7,20.5 89,20.5 	"/>
	<polygon fill="#FFFFFF" points="91.8,20.5 91.8,16.5 91.6,16.4 91.7,15.8 92.6,16 92.6,20.5 	"/>
	<polygon fill="#FFFFFF" points="94.7,16.6 93.4,16.6 93.4,15.9 96.7,15.9 96.7,16.6 95.4,16.6 95.4,20.5 94.7,20.5 	"/>
	<path fill="#FFFFFF" d="M100.8,15.9v3c0,0.5-0.1,0.8-0.2,1.1c-0.3,0.4-0.8,0.6-1.5,0.6c-0.7,0-1.3-0.2-1.5-0.7
		c-0.1-0.2-0.2-0.5-0.2-0.9v-3h0.8v2.9c0,0.3,0,0.6,0.1,0.7c0.1,0.2,0.4,0.3,0.8,0.3c0.4,0,0.7-0.1,0.8-0.4c0.1-0.1,0.1-0.3,0.1-0.6
		v-2.9H100.8z"/>
	<polygon fill="#FFFFFF" points="102.8,16.6 101.5,16.6 101.5,15.9 104.8,15.9 104.8,16.6 103.6,16.6 103.6,20.5 102.8,20.5 	"/>
	<path fill="#FFFFFF" d="M105.3,16.4l0.1-0.6l0.3,0c0.3,0,0.5,0.1,0.8,0.1h2v0.7h-2v1.2h1.6v0.7h-1.6v1.4h2.1v0.7h-2.8v-4
		L105.3,16.4z"/>
	<path fill="#FFFFFF" d="M112.4,16.6c-0.2,0.1-0.3,0.2-0.3,0.4c-0.2,0.3-0.2,0.8-0.2,1.2c0,0.7,0.2,1.2,0.4,1.5
		c0.2,0.2,0.4,0.3,0.7,0.3c0.3,0,0.6-0.1,0.8-0.3c0.2-0.2,0.4-0.8,0.4-1.4c0-1.2-0.4-1.7-1.2-1.7C112.7,16.5,112.5,16.6,112.4,16.6
		 M114,16.1c0.6,0.4,0.9,1.1,0.9,2.1c0,1.5-0.7,2.4-2,2.4c-0.5,0-0.9-0.1-1.2-0.4c-0.5-0.4-0.8-1.1-0.8-2c0-1.6,0.7-2.4,2-2.4
		C113.3,15.8,113.7,15.9,114,16.1"/>
	<path fill="#FFFFFF" d="M115.5,16.4l0.1-0.6l0.3,0c0.3,0,0.5,0.1,0.7,0.1h1.8v0.7h-1.9v1.3h1.5v0.7h-1.5v2h-0.8v-4L115.5,16.4z"/>
	<path fill="#FFFFFF" d="M80.3,23.9l0.2-0.6l0.9,0.2V28h-0.8L79,25.5c-0.2-0.4-0.4-0.8-0.6-1.2c0,0.4,0.1,0.8,0.1,1.2V28h-0.7v-4
		l-0.3-0.1l0.1-0.6l1.1,0.2l1.5,2.5c0.2,0.3,0.4,0.7,0.5,1c0-0.5-0.1-0.8-0.1-1.3V24L80.3,23.9z"/>
	<path fill="#FFFFFF" d="M82.2,23.9l0.1-0.6l0.3,0c0.3,0,0.5,0.1,0.8,0.1h2v0.7h-2v1.2h1.6v0.7h-1.6v1.4h2.1V28h-2.8v-4L82.2,23.9z"
		/>
	<path fill="#FFFFFF" d="M85.8,23.5l0.8-0.2l0.7,2.8c0.1,0.2,0.1,0.6,0.2,0.9c0-0.3,0.1-0.7,0.2-0.9l0.8-2.7H89l0.8,2.8
		c0.1,0.2,0.1,0.5,0.1,0.8c0-0.4,0.1-0.7,0.2-1l0.7-2.7l0.7,0.2L90.3,28h-0.7l-0.8-2.7c-0.1-0.3-0.1-0.5-0.2-0.8
		c0,0.3-0.1,0.6-0.2,0.8L87.7,28h-0.7L85.8,23.5z"/>
	<polygon fill="#FFFFFF" points="93.9,24.1 93.9,23.4 96.6,23.4 96.8,24 94.6,27.3 96.9,27.3 96.9,28 93.7,28 93.6,27.5 95.9,24.1 	
		"/>
	<path fill="#FFFFFF" d="M97.4,23.9l0.1-0.6l0.3,0c0.3,0,0.5,0.1,0.8,0.1h2v0.7h-2v1.2h1.6v0.7h-1.6v1.4h2.1V28h-2.8v-4L97.4,23.9z"
		/>
	<path fill="#FFFFFF" d="M103.7,26l-0.6-1.9H103l-0.6,1.9H103.7z M102,23.9l0.2-0.5l0.2,0c0.2,0,0.3,0,0.5,0h0.7l1.6,4.5l-0.8,0.2
		l-0.5-1.5h-1.6l-0.5,1.5l-0.8-0.2l1.4-3.9L102,23.9z"/>
	<polygon fill="#FFFFFF" points="105.7,23.9 105.8,23.3 106.7,23.5 106.7,27.3 108.6,27.3 108.6,28 105.9,28 105.9,24 	"/>
	<path fill="#FFFFFF" d="M111.6,26l-0.6-1.9h-0.1l-0.6,1.9H111.6z M109.9,23.9l0.2-0.5l0.2,0c0.2,0,0.3,0,0.5,0h0.7l1.6,4.5
		l-0.8,0.2l-0.5-1.5h-1.6l-0.5,1.5l-0.8-0.2l1.4-3.9L109.9,23.9z"/>
	<path fill="#FFFFFF" d="M116.4,23.9l0.2-0.6l0.9,0.2V28h-0.8l-1.5-2.5c-0.2-0.4-0.4-0.8-0.6-1.2c0,0.4,0.1,0.8,0.1,1.2V28h-0.7v-4
		l-0.3-0.1l0.1-0.6l1.1,0.2l1.5,2.5c0.2,0.3,0.4,0.7,0.5,1c0-0.5-0.1-0.8-0.1-1.3V24L116.4,23.9z"/>
	<path fill="#FFFFFF" d="M119.9,27.3c0.9,0,1.3-0.5,1.3-1.6c0-0.6-0.1-1.1-0.4-1.3c-0.2-0.2-0.5-0.3-1-0.3h-0.4v3.2H119.9z
		 M118.2,23.9l0.1-0.6l0.3,0c0.3,0,0.5,0.1,0.8,0.1h0.7c0.7,0,1.1,0.1,1.4,0.5c0.4,0.4,0.6,1,0.6,1.8c0,1-0.3,1.7-1,2.1
		c-0.3,0.2-0.6,0.3-1.1,0.3h-1.4v-4L118.2,23.9z"/>
</g>
</svg>
